<svg width="1280" height="431" xmlns="http://www.w3.org/2000/svg" xmlns:xlink="http://www.w3.org/1999/xlink" xml:space="preserve" overflow="hidden"><g><path d="M715.455 51.5803 715.455 30.9109 722.438 30.9109C729.274 30.9109 733.146 34.3225 733.146 41.3455 733.146 47.8089 729.161 51.587 722.264 51.587L715.455 51.587ZM717.76 32.7633 717.76 49.7146 722.144 49.7146C727.508 49.7146 730.773 46.8827 730.773 41.4455 730.773 35.6218 727.628 32.7633 722.378 32.7633L717.76 32.7633Z" fill="#FCFAFC" transform="matrix(1 0 0 1.00077 0.326768 0)"/><path d="M736.37 48.302C736.37 45.1103 739.775 44.0575 745.086 43.6111L745.086 42.6982C745.086 40.3394 743.813 39.3399 741.535 39.3399 740.209 39.3399 738.536 39.753 737.03 40.5593L737.03 38.6203C737.896 38.1738 739.975 37.4009 741.968 37.4009 745.026 37.4009 747.332 38.9801 747.332 42.5316L747.332 48.7751C747.332 49.8279 747.651 50.2477 748.631 50.2477 748.864 50.2477 749.151 50.221 749.437 50.1677L749.437 51.5537C749.091 51.7202 748.284 51.8602 747.565 51.8602 746.039 51.8602 745.226 51.1405 745.113 49.9478 744.013 50.9473 742.461 51.8602 740.468 51.8602 738.076 51.8602 736.37 50.6141 736.37 48.3087ZM741.195 50.0544C742.781 50.0544 744.08 49.3348 745.093 48.362L745.093 45.0903C740.995 45.3968 738.716 46.1431 738.716 48.0888 738.716 49.2815 739.582 50.0611 741.195 50.0611Z" fill="#FCFAFC" transform="matrix(1 0 0 1.00077 0.326768 0)"/><path d="M753.368 48.3286 753.368 39.2266 751.463 39.2266 751.463 37.6141 753.368 37.6141 753.368 34.7289 755.621 34.7289 755.621 37.6141 759.485 37.6141 759.485 39.2266 755.621 39.2266 755.621 48.1088C755.621 49.6613 756.167 50.0811 757.44 50.0811 758.366 50.0811 758.966 49.9412 759.432 49.7479L759.492 51.3871C759.059 51.5803 757.993 51.8602 756.693 51.8602 754.155 51.8335 753.375 50.5808 753.375 48.3353Z" fill="#FCFAFC" transform="matrix(1 0 0 1.00077 0.326768 0)"/><path d="M762.371 44.5572C762.371 40.0329 764.909 37.3409 768.981 37.3409 772.212 37.3409 774.464 39.0067 774.464 43.2246 774.464 43.6977 774.438 44.0841 774.404 44.4706L764.709 44.4706C764.736 48.2154 766.582 50.0211 769.9 50.0211 771.633 50.0211 773.158 49.5214 774.284 48.6352L774.284 50.4942C773.272 51.3005 771.339 51.8535 769.32 51.8535 764.589 51.8535 762.364 48.8017 762.364 44.5572ZM764.796 43.0314 772.239 43.0314 772.239 42.7248C772.239 40.7525 771.459 38.9801 768.921 38.9801 766.555 38.9801 765.143 40.4793 764.796 43.0314Z" fill="#FCFAFC" transform="matrix(1 0 0 1.00077 0.326768 0)"/><path d="M378.98 104.133C358.244 98.2765 335.342 97.4236 314.226 99.3826 293.737 101.282 273.021 106.792 256.096 118.479 239.804 129.734 226.371 144.893 213.751 159.718 205.115 169.86 196.879 179.748 187.951 189.137 189.85 190.663 192.762 193.061 195.154 195.04 201.37 188.217 207.421 180.821 213.871 173.192 233.141 150.383 257.862 130.573 286.74 120.978 319.757 110.004 356.625 117.04 389.801 126.389 389.801 126.389 389.801 107.945 389.801 107.945 387.915 106.905 380.099 104.447 378.986 104.127Z" fill="#1C3687" transform="matrix(1 0 0 1.00077 0.326768 0)"/><path d="M389.794 278.231C356.618 287.58 319.743 294.616 286.734 283.642 257.862 274.047 233.134 254.237 213.864 231.428 207.647 224.072 201.804 216.943 195.82 210.326L188.884 216.456C197.452 225.551 205.408 235.113 213.744 244.902 226.364 259.727 239.798 274.886 256.089 286.141 273.014 297.835 293.73 303.338 314.219 305.237 335.335 307.196 358.23 306.344 378.973 300.486 380.092 300.173 389.261 297.508 389.788 297.075 389.788 297.075 389.788 278.225 389.788 278.225Z" fill="#1C3687" transform="matrix(1 0 0 1.00077 0.326768 0)"/><path d="M188.211 202.29C187.464 201.564 186.711 200.851 185.965 200.158 174.897 189.65 162.557 181.267 146.145 176.71 142.061 175.577 130.513 175.091 130.513 175.091L96.3375 175.091 96.3375 184.199 122.757 184.199C126.742 184.199 130.787 183.973 134.751 184.139 138.189 184.279 141.614 184.812 144.979 185.672 155.107 188.25 164.716 193.774 172.445 200.524 173.118 201.111 173.765 201.717 174.424 202.31 173.765 202.903 173.118 203.509 172.445 204.096 164.716 210.846 155.107 216.369 144.979 218.948 141.608 219.808 138.183 220.341 134.751 220.481 130.78 220.647 126.735 220.421 122.757 220.421L96.3375 220.421 96.3375 229.529 130.513 229.529C130.513 229.529 142.054 229.043 146.145 227.91 161.917 223.532 173.924 215.617 184.659 205.675 185.925 204.536 187.258 203.296 188.204 202.317 188.204 202.317 188.191 202.303 188.191 202.303 188.197 202.297 188.204 202.29 188.211 202.283Z" fill="#1C3687" transform="matrix(1 0 0 1.00077 0.326768 0)"/><path d="M389.794 236.399C387.009 238.178 369.691 242.916 367.539 243.442 347.949 248.2 327.613 251.791 307.729 250.405 289.665 249.146 270.429 244.109 254.337 234.84 242.949 228.277 233.787 218.528 224.225 209.68 221.627 207.274 218.995 204.802 216.329 202.317 218.995 199.831 221.633 197.359 224.225 194.954 233.787 186.105 242.969 177.869 254.517 170.646 270.262 160.798 289.672 155.487 307.736 154.221 327.619 152.835 347.956 156.427 367.546 161.184 369.545 161.671 385.61 165.882 389.195 167.821 353.106 207.174 267.916 192.202 267.916 192.202L267.916 196.366C332.39 224.359 389.801 192.202 389.801 192.202L389.801 168.221 389.801 168.221 389.801 167.168 389.801 167.168C389.801 163.263 389.801 149.564 389.801 149.564 359.09 136.43 318.491 131.18 285.474 142.154 256.602 151.749 234.84 174.391 212.605 194.367 211.758 195.127 210.939 195.86 210.126 196.593 201.65 188.877 192.648 181.267 182.627 174.991 178.376 172.332 173.984 169.74 169.44 167.534 167.461 166.575 165.455 165.689 163.417 164.896 156.733 162.31 149.724 160.665 142.654 159.618 138.689 158.912 127.495 158.292 127.495 158.292L96.3508 158.292 96.3508 167.275 125.749 167.275 126.915 167.248C161.104 168.747 174.897 176.963 203.689 202.317 174.897 227.67 161.104 235.893 126.915 237.385L125.749 237.359 96.3508 237.359 96.3508 246.341 127.495 246.341C127.495 246.341 138.689 245.721 142.654 245.015 149.73 243.969 156.74 242.323 163.417 239.738 165.455 238.951 167.461 238.058 169.44 237.099 173.984 234.893 178.376 232.301 182.627 229.643 192.655 223.366 201.657 215.756 210.126 208.047 210.946 208.78 211.765 209.513 212.605 210.273 234.84 230.249 256.596 252.891 285.474 262.486 318.491 273.46 359.09 268.203 389.801 255.076 389.801 255.076 389.801 236.413 389.801 236.413Z" fill="#ED1B2F" transform="matrix(1 0 0 1.00077 0.326768 0)"/><path d="M522.273 260.94C511.392 260.94 501.351 259.507 492.415 256.696 483.44 253.864 475.624 249.832 469.174 244.702 462.677 239.544 457.6 233.261 454.081 226.038 450.556 218.815 448.771 210.659 448.771 201.81 448.771 192.961 450.59 185.159 454.175 177.922 457.753 170.706 462.824 164.429 469.254 159.272 475.65 154.141 483.466 150.077 492.495 147.191 501.49 144.313 511.512 142.854 522.273 142.854 533.034 142.854 543.209 144.313 552.145 147.191 561.107 150.077 568.896 154.141 575.293 159.272 581.723 164.429 586.794 170.706 590.378 177.922 593.963 185.159 595.782 193.195 595.782 201.81L595.782 207.534 461.937 207.534C462.477 213.198 464.176 218.448 466.988 223.153 470.107 228.37 474.344 232.921 479.582 236.679 484.846 240.457 491.156 243.416 498.332 245.488 505.542 247.567 513.598 248.62 522.28 248.62 534.674 248.62 545.701 246.781 555.043 243.142 564.298 239.544 571.941 233.901 577.765 226.371L578.618 225.265 589.699 231.289 588.519 232.814C581.156 242.343 571.768 249.506 560.607 254.09 549.513 258.648 536.619 260.96 522.28 260.96ZM582.582 196.26C581.949 190.596 580.23 185.345 577.465 180.628 574.4 175.41 570.195 170.866 564.971 167.115 559.707 163.337 553.397 160.378 546.221 158.306 539.011 156.227 530.955 155.174 522.273 155.174 513.591 155.174 505.535 156.227 498.325 158.306 491.149 160.371 484.872 163.33 479.668 167.108 474.491 170.859 470.286 175.41 467.161 180.641 464.343 185.352 462.597 190.596 461.964 196.26L582.582 196.26Z" fill="#231F20" transform="matrix(1 0 0 1.00077 0.326768 0)"/><path d="M695.811 260.94C685.403 260.94 675.708 259.507 666.999 256.689 658.257 253.857 650.648 249.819 644.378 244.688 638.067 239.531 633.09 233.261 629.572 226.038 626.047 218.815 624.261 210.659 624.261 201.81 624.261 192.961 626.047 184.806 629.572 177.583 633.09 170.366 638.074 164.09 644.378 158.932 650.661 153.801 658.27 149.79 667.013 147.018 675.715 144.26 685.403 142.86 695.811 142.86 701.668 142.86 707.459 143.347 713.036 144.306 718.613 145.266 723.957 146.665 728.928 148.458 733.925 150.263 738.543 152.529 742.661 155.187 745.486 157.013 748.018 159.039 750.243 161.224L750.243 125.116 762.577 125.116 762.577 255.09 750.243 255.09 750.243 242.996C744.12 248.306 736.824 252.538 728.495 255.609 718.886 259.148 707.885 260.947 695.811 260.947ZM697.764 155.181C688.502 155.181 680.006 156.32 672.503 158.572 665.047 160.811 658.564 164.03 653.253 168.147 647.969 172.239 643.824 177.183 640.933 182.853 638.047 188.51 636.588 194.88 636.588 201.804 636.588 208.727 638.047 215.283 640.933 220.934 643.824 226.604 647.969 231.548 653.253 235.64 658.57 239.758 665.047 242.976 672.503 245.215 679.999 247.467 688.502 248.606 697.764 248.606 709.797 248.606 720.459 246.767 729.447 243.136 738.163 239.618 745.159 234.427 750.243 227.697L750.243 176.263C745.153 169.533 738.123 164.316 729.347 160.731 720.299 157.046 709.671 155.174 697.764 155.174Z" fill="#231F20" transform="matrix(1 0 0 1.00077 0.326768 0)"/><path d="M988.375 255.083 988.375 194.887C988.375 181.234 984.964 171.099 978.22 164.762 971.457 158.406 960.763 155.181 946.45 155.181 939.873 155.181 933.79 155.907 928.379 157.346 923.022 158.772 918.384 160.838 914.586 163.496 910.841 166.122 907.863 169.373 905.744 173.158 903.632 176.93 902.506 181.267 902.399 186.058L902.399 255.09 890.072 255.09 890.072 186.018C889.732 176.45 886.074 169.074 878.884 163.543 871.681 157.999 861.4 155.187 848.32 155.187 839.858 155.187 832.188 156.973 825.525 160.498 819.035 163.93 813.918 169.014 810.306 175.61L810.306 255.09 797.972 255.09 797.972 148.711 810.279 148.711 810.419 157.999C814.411 153.948 819.355 150.556 825.172 147.884 832.448 144.546 840.491 142.854 849.073 142.854 861.7 142.854 872.468 145.312 881.07 150.163 888.513 154.361 893.957 160.078 897.308 167.188 900.753 160.078 906.29 154.361 913.8 150.163 922.475 145.312 933.47 142.854 946.483 142.854 964.474 142.854 978.147 147.151 987.129 155.634 996.131 164.143 1000.7 177.349 1000.7 194.887L1000.7 255.083 988.375 255.083Z" fill="#231F20" transform="matrix(1 0 0 1.00077 0.326768 0)"/><path d="M1107.66 260.94C1096.79 260.94 1086.74 259.507 1077.8 256.696 1068.83 253.864 1061.01 249.832 1054.56 244.702 1048.07 239.544 1042.99 233.261 1039.47 226.038 1035.94 218.808 1034.16 210.659 1034.16 201.81 1034.16 192.961 1035.98 185.159 1039.56 177.922 1043.14 170.706 1048.22 164.429 1054.65 159.272 1061.04 154.141 1068.86 150.077 1077.89 147.191 1086.88 144.313 1096.91 142.854 1107.67 142.854 1118.43 142.854 1128.6 144.313 1137.54 147.191 1146.5 150.077 1154.29 154.141 1160.69 159.272 1167.11 164.423 1172.19 170.699 1175.77 177.922 1179.36 185.165 1181.18 193.201 1181.18 201.81L1181.18 207.534 1047.33 207.534C1047.87 213.198 1049.57 218.448 1052.38 223.153 1055.5 228.37 1059.74 232.928 1064.98 236.679 1070.24 240.457 1076.55 243.416 1083.73 245.488 1090.94 247.567 1098.99 248.62 1107.67 248.62 1120.06 248.62 1131.09 246.781 1140.43 243.142 1149.69 239.544 1157.33 233.901 1163.15 226.371L1164.01 225.265 1175.09 231.289 1173.91 232.814C1166.54 242.343 1157.16 249.506 1145.99 254.09 1134.9 258.648 1122.01 260.96 1107.66 260.96ZM1167.97 196.26C1167.34 190.596 1165.62 185.345 1162.85 180.634 1159.79 175.417 1155.58 170.866 1150.36 167.121 1145.1 163.343 1138.78 160.385 1131.61 158.312 1124.4 156.234 1116.34 155.181 1107.66 155.181 1098.98 155.181 1090.92 156.234 1083.72 158.312 1076.54 160.378 1070.27 163.337 1065.06 167.115 1059.89 170.866 1055.68 175.417 1052.56 180.648 1049.74 185.359 1047.99 190.603 1047.36 196.266L1167.98 196.266Z" fill="#231F20" transform="matrix(1 0 0 1.00077 0.326768 0)"/><path d="M473.345 337.581C470.613 337.581 468.048 337.188 465.635 336.401 463.23 335.615 461.031 334.489 459.039 333.037 457.047 331.577 455.334 329.818 453.901 327.759 452.469 325.7 451.356 323.408 450.57 320.889 449.784 318.364 449.39 315.672 449.39 312.8 449.39 309.928 449.784 307.343 450.57 304.884 451.356 302.432 452.469 300.233 453.901 298.288 455.334 296.342 457.047 294.663 459.039 293.25 461.031 291.838 463.23 290.751 465.635 289.985 468.041 289.226 470.613 288.819 473.345 288.772 475.657 288.772 477.629 288.992 479.249 289.432 480.868 289.872 482.187 290.345 483.206 290.858 484.226 291.371 484.939 291.758 485.359 292.037 485.912 292.364 486.458 292.744 486.991 293.184 487.524 293.623 487.837 294.096 487.924 294.61 488.017 295.076 488.004 295.422 487.891 295.649 487.771 295.882 487.651 296.115 487.511 296.342 487.324 296.668 487.098 296.895 486.818 297.035 486.538 297.175 486.238 297.241 485.912 297.241 485.499 297.241 485.126 297.102 484.799 296.822 484.473 296.542 484.059 296.242 483.553 295.922 483.273 295.736 482.673 295.416 481.747 294.949 480.821 294.49 479.628 294.05 478.169 293.63 476.71 293.217 475.011 293.004 473.065 293.004 470.286 293.004 467.708 293.49 465.322 294.463 462.937 295.436 460.865 296.815 459.105 298.594 457.346 300.373 455.98 302.492 455.008 304.944 454.035 307.396 453.548 310.128 453.548 313.14 453.548 316.152 454.035 318.89 455.008 321.369 455.98 323.848 457.346 325.973 459.105 327.759 460.865 329.545 462.937 330.918 465.322 331.89 467.708 332.863 470.286 333.35 473.065 333.35 475.011 333.35 476.71 333.143 478.169 332.723 479.628 332.31 480.821 331.857 481.747 331.371 482.673 330.884 483.273 330.571 483.553 330.438 484.059 330.158 484.479 329.885 484.799 329.605 485.126 329.325 485.492 329.192 485.912 329.192 486.238 329.192 486.538 329.252 486.818 329.365 487.098 329.485 487.324 329.705 487.511 330.025 487.651 330.211 487.777 330.445 487.891 330.718 488.004 330.998 488.017 331.371 487.924 331.83 487.831 332.344 487.518 332.817 486.991 333.256 486.458 333.696 485.912 334.076 485.359 334.402 484.946 334.636 484.213 335.016 483.173 335.549 482.134 336.082 480.801 336.555 479.182 336.975 477.563 337.388 475.617 337.601 473.352 337.601Z" fill="#231F20" transform="matrix(1 0 0 1.00077 0.326768 0)"/><path d="M510.979 337.648C509.68 337.648 508.514 337.508 507.474 337.228 506.435 336.948 505.522 336.535 504.729 335.982 503.943 335.429 503.283 334.729 502.75 333.896 502.217 333.063 501.824 332.09 501.57 330.978 501.317 329.865 501.191 328.639 501.191 327.299L501.191 291.191C501.191 290.638 501.244 290.212 501.364 289.905 501.477 289.605 501.69 289.385 501.99 289.246 502.29 289.106 502.67 289.039 503.136 289.039 503.643 289.039 504.049 289.099 504.349 289.212 504.649 289.326 504.869 289.525 505.009 289.799 505.149 290.078 505.215 290.472 505.215 290.978L505.215 327.433C505.215 328.452 505.329 329.345 505.562 330.105 505.795 330.864 506.155 331.517 506.641 332.05 507.128 332.583 507.727 332.977 508.447 333.23 509.167 333.483 509.986 333.61 510.912 333.61 511.465 333.61 511.898 333.67 512.198 333.783 512.498 333.896 512.718 334.109 512.858 334.409 512.998 334.709 513.065 335.115 513.065 335.622 513.065 336.128 512.998 336.535 512.858 336.841 512.718 337.141 512.498 337.348 512.198 337.468 511.898 337.581 511.492 337.641 510.986 337.641Z" fill="#231F20" transform="matrix(1 0 0 1.00077 0.326768 0)"/><path d="M553.817 337.581C553.171 337.581 552.711 337.414 552.431 337.094 552.151 336.768 551.965 336.168 551.878 335.289L551.878 330.638C551.365 331.517 550.572 332.503 549.479 333.59 548.393 334.676 546.981 335.629 545.248 336.435 543.509 337.248 541.417 337.654 538.965 337.654 536.699 337.654 534.6 337.228 532.681 336.368 530.762 335.509 529.083 334.316 527.65 332.79 526.218 331.264 525.092 329.492 524.286 327.479 523.473 325.467 523.073 323.282 523.073 320.916 523.073 318.551 523.473 316.532 524.286 314.566 525.092 312.6 526.231 310.861 527.69 309.355 529.15 307.849 530.836 306.67 532.761 305.817 534.68 304.964 536.752 304.531 538.978 304.531 541.203 304.531 543.016 304.811 544.568 305.364 546.121 305.917 547.487 306.683 548.666 307.656 549.846 308.629 550.925 309.762 551.898 311.061L551.898 307.103C551.898 306.177 552.051 305.517 552.351 305.124 552.651 304.731 553.171 304.531 553.91 304.531 554.377 304.531 554.73 304.611 554.99 304.771 555.243 304.938 555.43 305.197 555.543 305.571 555.656 305.944 555.716 306.45 555.716 307.096L555.716 335.289C555.716 335.842 555.656 336.295 555.543 336.641 555.423 336.988 555.23 337.228 554.95 337.368 554.67 337.508 554.304 337.574 553.837 337.574ZM539.724 334.043C541.95 334.043 543.962 333.476 545.768 332.337 547.574 331.204 549.006 329.665 550.072 327.719 551.138 325.774 551.672 323.555 551.672 321.056 551.672 318.417 551.118 316.125 550.006 314.18 548.893 312.234 547.427 310.721 545.595 309.635 543.769 308.549 541.763 308.003 539.591 308.003 537.046 308.003 534.827 308.582 532.928 309.735 531.029 310.895 529.549 312.454 528.483 314.419 527.417 316.385 526.884 318.644 526.884 321.189 526.884 323.735 527.417 325.84 528.483 327.786 529.549 329.732 531.055 331.257 532.994 332.37 534.933 333.483 537.186 334.036 539.731 334.036Z" fill="#231F20" transform="matrix(1 0 0 1.00077 0.326768 0)"/><path d="M571.735 337.648C571.268 337.648 570.902 337.581 570.622 337.441 570.342 337.301 570.149 337.068 570.035 336.748 569.916 336.428 569.862 336.008 569.862 335.502L569.862 306.543C569.862 305.99 569.916 305.564 570.035 305.257 570.149 304.958 570.349 304.764 570.622 304.671 570.902 304.578 571.295 304.531 571.801 304.531 572.261 304.531 572.647 304.578 572.947 304.671 573.247 304.764 573.467 304.964 573.607 305.257 573.747 305.564 573.814 305.99 573.814 306.543L573.814 309.462C574.273 308.676 574.74 307.956 575.2 307.31 575.659 306.663 576.219 306.097 576.865 305.611 577.512 305.124 578.311 304.744 579.264 304.464 580.21 304.185 581.403 304.045 582.842 304.045 583.582 304.045 584.268 304.111 584.895 304.251 585.521 304.391 586.094 304.578 586.627 304.804 587.16 305.038 587.613 305.291 587.98 305.564 588.346 305.844 588.626 306.117 588.813 306.397 588.999 306.677 589.092 306.95 589.092 307.23 589.092 307.829 588.839 308.342 588.326 308.756 587.82 309.169 587.353 309.382 586.94 309.382 586.427 309.382 586.047 309.302 585.794 309.142 585.541 308.982 585.274 308.782 584.995 308.549 584.715 308.323 584.302 308.123 583.742 307.963 583.189 307.803 582.329 307.723 581.17 307.723 580.477 307.723 579.711 307.876 578.878 308.176 578.045 308.476 577.245 308.929 576.479 309.529 575.719 310.128 575.08 310.914 574.566 311.887 574.06 312.86 573.807 314.02 573.807 315.359L573.807 335.635C573.807 336.148 573.747 336.548 573.634 336.855 573.514 337.154 573.307 337.361 573.007 337.481 572.707 337.594 572.281 337.654 571.721 337.654Z" fill="#231F20" transform="matrix(1 0 0 1.00077 0.326768 0)"/><path d="M604.091 294.53C603.445 294.53 602.932 294.436 602.565 294.25 602.192 294.063 601.926 293.763 601.766 293.343 601.606 292.93 601.526 292.397 601.526 291.744 601.526 291.091 601.606 290.585 601.766 290.218 601.926 289.852 602.206 289.585 602.599 289.419 602.992 289.259 603.512 289.179 604.158 289.179 604.804 289.179 605.317 289.272 605.684 289.459 606.05 289.645 606.324 289.932 606.484 290.325 606.643 290.718 606.723 291.258 606.723 291.958 606.723 292.557 606.643 293.057 606.484 293.45 606.324 293.843 606.057 294.123 605.684 294.283 605.311 294.443 604.784 294.523 604.085 294.523ZM604.091 337.648C603.625 337.648 603.245 337.581 602.945 337.441 602.645 337.301 602.432 337.081 602.319 336.781 602.206 336.481 602.146 336.075 602.146 335.569L602.146 306.543C602.146 306.037 602.206 305.631 602.319 305.331 602.432 305.031 602.645 304.824 602.945 304.704 603.245 304.584 603.652 304.531 604.158 304.531 604.664 304.531 605.058 304.598 605.337 304.738 605.617 304.878 605.811 305.097 605.924 305.397 606.037 305.697 606.097 306.124 606.097 306.683L606.097 335.635C606.097 336.148 606.037 336.548 605.924 336.855 605.804 337.154 605.597 337.361 605.297 337.481 604.998 337.594 604.591 337.654 604.085 337.654Z" fill="#231F20" transform="matrix(1 0 0 1.00077 0.326768 0)"/><path d="M620.543 305.431 626.72 305.571 636.368 305.431C636.875 305.431 637.281 305.491 637.581 305.604 637.881 305.717 638.101 305.917 638.241 306.19 638.381 306.47 638.447 306.843 638.447 307.303 638.447 307.816 638.387 308.216 638.274 308.516 638.154 308.816 637.961 309.029 637.681 309.142 637.401 309.255 637.008 309.315 636.502 309.315L626.713 309.175 620.396 309.315C619.657 309.315 619.15 309.169 618.871 308.862 618.591 308.562 618.457 308.043 618.457 307.303 618.457 306.61 618.617 306.124 618.944 305.844 619.27 305.564 619.803 305.431 620.543 305.431ZM635.962 337.648C633.876 337.648 632.13 337.461 630.718 337.094 629.305 336.721 628.159 336.148 627.28 335.355 626.4 334.569 625.774 333.516 625.401 332.197 625.027 330.878 624.847 329.245 624.847 327.299L624.847 295.356C624.847 294.803 624.907 294.37 625.021 294.07 625.134 293.77 625.334 293.55 625.607 293.41 625.88 293.27 626.253 293.204 626.72 293.204 627.226 293.204 627.633 293.264 627.933 293.377 628.232 293.49 628.452 293.69 628.592 293.963 628.732 294.243 628.799 294.636 628.799 295.143L628.799 327.426C628.799 328.865 628.925 330.011 629.179 330.864 629.432 331.724 629.825 332.357 630.358 332.777 630.891 333.19 631.617 333.463 632.544 333.576 633.47 333.696 634.583 333.75 635.875 333.75 636.428 333.75 636.861 333.809 637.161 333.923 637.461 334.043 637.681 334.236 637.821 334.516 637.961 334.796 638.027 335.189 638.027 335.695 638.027 336.202 637.961 336.601 637.821 336.875 637.681 337.148 637.461 337.348 637.161 337.461 636.861 337.574 636.455 337.634 635.948 337.634Z" fill="#231F20" transform="matrix(1 0 0 1.00077 0.326768 0)"/><path d="M663.941 332.024 648.315 307.723C647.902 307.076 647.736 306.543 647.829 306.124 647.922 305.71 648.269 305.317 648.869 304.944 649.515 304.524 650.061 304.365 650.501 304.458 650.941 304.551 651.367 304.918 651.787 305.564L666.02 328.132 663.934 332.024ZM656.651 350.841C655.958 350.561 655.552 350.228 655.432 349.835 655.319 349.441 655.419 348.875 655.745 348.135L674.702 305.644C675.029 304.904 675.388 304.438 675.781 304.258 676.175 304.071 676.714 304.145 677.414 304.464 678.107 304.791 678.5 305.157 678.593 305.571 678.687 305.99 678.567 306.543 678.247 307.236L659.223 349.868C658.897 350.608 658.564 351.027 658.217 351.114 657.871 351.207 657.351 351.114 656.658 350.834Z" fill="#231F20" transform="matrix(1 0 0 1.00077 0.326768 0)"/><path d="M715.041 294.53C714.388 294.53 713.882 294.436 713.516 294.25 713.142 294.063 712.876 293.763 712.716 293.343 712.549 292.93 712.476 292.397 712.476 291.744 712.476 291.091 712.556 290.585 712.716 290.218 712.876 289.852 713.156 289.585 713.549 289.419 713.942 289.259 714.462 289.179 715.115 289.179 715.768 289.179 716.274 289.272 716.641 289.459 717.007 289.645 717.274 289.932 717.44 290.325 717.6 290.718 717.68 291.258 717.68 291.958 717.68 292.557 717.6 293.057 717.44 293.45 717.274 293.843 717.014 294.123 716.641 294.283 716.267 294.443 715.734 294.523 715.041 294.523ZM715.041 337.648C714.575 337.648 714.195 337.581 713.895 337.441 713.595 337.301 713.389 337.081 713.269 336.781 713.149 336.481 713.096 336.075 713.096 335.569L713.096 306.543C713.096 306.037 713.149 305.631 713.269 305.331 713.382 305.031 713.589 304.824 713.895 304.704 714.195 304.584 714.602 304.531 715.115 304.531 715.628 304.531 716.014 304.598 716.294 304.738 716.574 304.878 716.767 305.097 716.887 305.397 717 305.697 717.06 306.124 717.06 306.683L717.06 335.635C717.06 336.148 717 336.548 716.887 336.855 716.767 337.154 716.561 337.361 716.261 337.481 715.961 337.594 715.554 337.654 715.048 337.654Z" fill="#231F20" transform="matrix(1 0 0 1.00077 0.326768 0)"/><path d="M734.065 337.581C733.599 337.581 733.232 337.514 732.959 337.374 732.679 337.234 732.479 337.014 732.366 336.715 732.253 336.415 732.193 336.008 732.193 335.502L732.193 306.337C732.193 305.87 732.253 305.517 732.366 305.257 732.479 305.004 732.692 304.818 732.992 304.704 733.292 304.584 733.672 304.531 734.138 304.531 734.465 304.531 734.738 304.564 734.971 304.638 735.198 304.704 735.384 304.811 735.524 304.951 735.664 305.091 735.764 305.277 735.837 305.504 735.904 305.737 735.944 306.017 735.944 306.337L735.944 310.435C736.544 309.648 737.217 308.896 737.956 308.176 738.696 307.456 739.516 306.81 740.422 306.23 741.328 305.651 742.321 305.197 743.407 304.878 744.493 304.551 745.706 304.391 747.052 304.391 749.044 304.391 750.883 304.724 752.576 305.397 754.261 306.07 755.734 307.043 756.98 308.316 758.233 309.589 759.206 311.141 759.898 312.967 760.591 314.793 760.938 316.891 760.938 319.25L760.938 335.569C760.938 336.075 760.878 336.481 760.765 336.781 760.645 337.081 760.452 337.288 760.172 337.408 759.892 337.528 759.499 337.581 758.992 337.581 758.486 337.581 758.079 337.514 757.773 337.374 757.466 337.234 757.266 337.014 757.147 336.715 757.027 336.415 756.973 336.008 756.973 335.502L756.973 319.184C756.973 316.918 756.607 314.946 755.867 313.28 755.128 311.614 754.015 310.321 752.536 309.395 751.056 308.469 749.177 308.009 746.912 308.009 744.646 308.009 742.767 308.476 741.148 309.395 739.529 310.321 738.276 311.621 737.397 313.28 736.517 314.946 736.077 316.918 736.077 319.184L736.077 335.569C736.077 336.075 736.017 336.481 735.904 336.781 735.791 337.081 735.578 337.288 735.278 337.408 734.978 337.528 734.571 337.581 734.065 337.581Z" fill="#231F20" transform="matrix(1 0 0 1.00077 0.326768 0)"/><path d="M820.654 337.581C817.922 337.581 815.357 337.188 812.945 336.401 810.539 335.615 808.34 334.489 806.348 333.037 804.356 331.577 802.643 329.818 801.211 327.759 799.778 325.7 798.665 323.408 797.879 320.889 797.093 318.364 796.7 315.672 796.7 312.8 796.7 309.928 797.093 307.343 797.879 304.884 798.665 302.432 799.778 300.233 801.211 298.288 802.643 296.342 804.356 294.663 806.348 293.25 808.34 291.838 810.539 290.751 812.945 289.985 815.35 289.226 817.922 288.819 820.654 288.772 822.966 288.772 824.939 288.992 826.558 289.432 828.177 289.872 829.496 290.345 830.516 290.858 831.535 291.371 832.248 291.758 832.668 292.037 833.221 292.364 833.767 292.744 834.3 293.184 834.834 293.623 835.147 294.096 835.233 294.61 835.327 295.076 835.313 295.422 835.2 295.649 835.08 295.882 834.96 296.115 834.82 296.342 834.634 296.668 834.407 296.895 834.127 297.035 833.847 297.175 833.547 297.241 833.221 297.241 832.808 297.241 832.435 297.102 832.108 296.822 831.782 296.542 831.369 296.242 830.862 295.922 830.582 295.736 829.983 295.416 829.056 294.949 828.13 294.49 826.938 294.05 825.478 293.63 824.019 293.217 822.32 293.004 820.374 293.004 817.596 293.004 815.017 293.49 812.632 294.463 810.246 295.436 808.174 296.815 806.415 298.594 804.656 300.373 803.29 302.492 802.317 304.944 801.344 307.396 800.858 310.128 800.858 313.14 800.858 316.152 801.344 318.89 802.317 321.369 803.29 323.848 804.656 325.973 806.415 327.759 808.174 329.545 810.246 330.918 812.632 331.89 815.017 332.863 817.596 333.35 820.374 333.35 822.32 333.35 824.019 333.143 825.478 332.723 826.938 332.31 828.13 331.857 829.056 331.371 829.983 330.884 830.582 330.571 830.862 330.438 831.369 330.158 831.788 329.885 832.108 329.605 832.435 329.325 832.801 329.192 833.221 329.192 833.547 329.192 833.847 329.252 834.127 329.365 834.407 329.485 834.634 329.705 834.82 330.025 834.96 330.211 835.087 330.445 835.2 330.718 835.313 330.998 835.327 331.371 835.233 331.83 835.14 332.344 834.827 332.817 834.3 333.256 833.767 333.696 833.221 334.076 832.668 334.402 832.255 334.636 831.522 335.016 830.482 335.549 829.443 336.082 828.11 336.555 826.491 336.975 824.872 337.388 822.926 337.601 820.661 337.601Z" fill="#231F20" transform="matrix(1 0 0 1.00077 0.326768 0)"/><path d="M863.632 337.927C861.313 337.927 859.141 337.488 857.102 336.608 855.063 335.729 853.271 334.522 851.725 332.997 850.172 331.471 848.96 329.685 848.08 327.646 847.201 325.607 846.761 323.435 846.761 321.123 846.761 318.81 847.187 316.572 848.047 314.559 848.906 312.547 850.106 310.761 851.658 309.215 853.211 307.663 854.99 306.463 857.009 305.604 859.021 304.744 861.187 304.318 863.499 304.318 866.597 304.318 869.403 305.044 871.901 306.503 874.4 307.963 876.392 309.955 877.878 312.474 879.357 314.999 880.097 317.858 880.097 321.049 880.097 323.455 879.671 325.68 878.811 327.713 877.958 329.752 876.779 331.531 875.273 333.057 873.767 334.582 872.021 335.775 870.036 336.635 868.043 337.488 865.918 337.921 863.646 337.921ZM863.492 334.176C865.851 334.176 867.997 333.59 869.916 332.404 871.835 331.224 873.36 329.625 874.5 327.613 875.633 325.6 876.199 323.368 876.199 320.909 876.199 318.451 875.646 316.192 874.533 314.246 873.421 312.3 871.901 310.788 869.989 309.702 868.063 308.616 865.878 308.069 863.426 308.069 860.974 308.069 858.855 308.636 856.929 309.775 855.01 310.908 853.484 312.447 852.351 314.393 851.219 316.338 850.652 318.537 850.652 320.989 850.652 323.441 851.219 325.734 852.351 327.726 853.484 329.718 855.023 331.291 856.969 332.45 858.915 333.61 861.087 334.183 863.492 334.183Z" fill="#231F20" transform="matrix(1 0 0 1.00077 0.326768 0)"/><path d="M894.39 337.581C893.923 337.581 893.557 337.514 893.277 337.374 892.997 337.234 892.804 337.014 892.691 336.715 892.571 336.415 892.517 336.008 892.517 335.502L892.517 306.337C892.517 305.87 892.571 305.517 892.691 305.257 892.804 305.004 893.017 304.818 893.317 304.704 893.617 304.584 893.997 304.531 894.463 304.531 895.109 304.531 895.576 304.671 895.849 304.951 896.129 305.231 896.262 305.69 896.262 306.337L896.262 310.501C896.682 309.529 897.268 308.676 898.035 307.929 898.801 307.19 899.667 306.55 900.64 306.017 901.613 305.484 902.619 305.077 903.658 304.804 904.698 304.524 905.711 304.391 906.677 304.391 908.343 304.391 909.835 304.718 911.155 305.364 912.474 306.01 913.64 306.923 914.659 308.109 915.679 309.289 916.538 310.735 917.232 312.447 918.298 310.595 919.37 309.082 920.463 307.896 921.549 306.717 922.775 305.837 924.141 305.257 925.507 304.678 927.046 304.391 928.759 304.391 931.398 304.391 933.583 305.038 935.322 306.337 937.061 307.63 938.367 309.442 939.247 311.754 940.126 314.066 940.566 316.798 940.566 319.95L940.566 335.575C940.566 336.082 940.506 336.488 940.393 336.788 940.273 337.088 940.08 337.294 939.8 337.414 939.52 337.534 939.127 337.588 938.621 337.588 938.114 337.588 937.708 337.521 937.408 337.381 937.108 337.241 936.901 337.021 936.781 336.721 936.661 336.421 936.608 336.015 936.608 335.509L936.608 319.883C936.608 317.524 936.322 315.452 935.742 313.666 935.162 311.887 934.296 310.495 933.137 309.502 931.977 308.509 930.478 308.009 928.626 308.009 926.68 308.009 924.948 308.509 923.415 309.502 921.889 310.501 920.683 311.887 919.803 313.666 918.924 315.446 918.484 317.518 918.484 319.883L918.484 335.642C918.484 336.242 918.331 336.721 918.031 337.068 917.731 337.414 917.358 337.621 916.918 337.694 916.479 337.761 916.072 337.707 915.706 337.521 915.426 337.428 915.199 337.301 915.013 337.141 914.826 336.981 914.699 336.761 914.633 336.481 914.566 336.202 914.526 335.882 914.526 335.509L914.526 319.883C914.526 317.524 914.233 315.452 913.66 313.666 913.08 311.887 912.214 310.495 911.055 309.502 909.895 308.509 908.396 308.009 906.544 308.009 904.598 308.009 902.865 308.509 901.34 309.502 899.814 310.501 898.608 311.887 897.728 313.666 896.849 315.446 896.409 317.518 896.409 319.883L896.409 335.575C896.409 336.082 896.349 336.488 896.236 336.788 896.116 337.088 895.909 337.294 895.609 337.414 895.309 337.534 894.903 337.588 894.396 337.588Z" fill="#231F20" transform="matrix(1 0 0 1.00077 0.326768 0)"/><path d="M956.465 350.914C955.952 350.914 955.552 350.847 955.252 350.708 954.952 350.568 954.732 350.348 954.592 350.048 954.452 349.748 954.386 349.342 954.386 348.835L954.386 306.69C954.386 306.137 954.446 305.704 954.559 305.404 954.672 305.104 954.886 304.884 955.185 304.744 955.485 304.604 955.892 304.538 956.398 304.538 957.184 304.538 957.731 304.691 958.031 304.991 958.33 305.291 958.484 305.837 958.484 306.623L958.484 348.768C958.484 349.275 958.424 349.695 958.31 350.015 958.191 350.341 957.984 350.568 957.684 350.708 957.384 350.847 956.978 350.914 956.471 350.914ZM971.39 337.514C969.118 337.514 967.039 337.121 965.14 336.335 963.241 335.549 961.602 334.416 960.21 332.93 958.817 331.451 957.744 329.692 956.978 327.653 956.212 325.614 955.832 323.348 955.832 320.849 955.832 318.351 956.212 316.092 956.978 314.08 957.737 312.067 958.817 310.328 960.21 308.869 961.595 307.41 963.241 306.29 965.14 305.504 967.039 304.718 969.118 304.325 971.39 304.325 973.663 304.325 975.582 304.718 977.434 305.504 979.286 306.29 980.906 307.43 982.292 308.909 983.684 310.388 984.77 312.161 985.557 314.219 986.343 316.278 986.736 318.557 986.736 321.056 986.736 323.555 986.343 325.74 985.557 327.753 984.77 329.765 983.684 331.504 982.292 332.963 980.906 334.423 979.286 335.542 977.434 336.328 975.582 337.114 973.569 337.508 971.39 337.508ZM970.771 333.829C973.083 333.829 975.155 333.283 976.988 332.197 978.813 331.111 980.266 329.585 981.325 327.613 982.391 325.647 982.925 323.388 982.925 320.843 982.925 318.297 982.391 315.992 981.325 314.073 980.259 312.154 978.813 310.661 976.988 309.595 975.162 308.529 973.09 308.003 970.771 308.003 968.452 308.003 966.453 308.549 964.627 309.635 962.795 310.721 961.349 312.227 960.289 314.146 959.223 316.065 958.69 318.304 958.69 320.843 958.69 323.381 959.223 325.647 960.289 327.613 961.356 329.578 962.801 331.111 964.627 332.197 966.453 333.283 968.505 333.829 970.771 333.829Z" fill="#231F20" transform="matrix(1 0 0 1.00077 0.326768 0)"/><path d="M1009.23 337.648C1007.94 337.648 1006.77 337.508 1005.73 337.228 1004.69 336.948 1003.77 336.535 1002.98 335.982 1002.19 335.429 1001.54 334.729 1001 333.896 1000.47 333.063 1000.08 332.09 999.823 330.978 999.569 329.865 999.443 328.639 999.443 327.299L999.443 291.191C999.443 290.638 999.503 290.212 999.616 289.905 999.729 289.599 999.943 289.385 1000.24 289.246 1000.54 289.106 1000.92 289.039 1001.39 289.039 1001.89 289.039 1002.3 289.099 1002.6 289.212 1002.9 289.326 1003.12 289.525 1003.26 289.799 1003.4 290.078 1003.47 290.472 1003.47 290.978L1003.47 327.433C1003.47 328.452 1003.58 329.345 1003.81 330.105 1004.04 330.864 1004.4 331.517 1004.89 332.05 1005.37 332.583 1005.97 332.977 1006.69 333.23 1007.41 333.483 1008.23 333.61 1009.16 333.61 1009.71 333.61 1010.14 333.67 1010.44 333.783 1010.74 333.896 1010.96 334.109 1011.1 334.409 1011.24 334.709 1011.31 335.115 1011.31 335.622 1011.31 336.128 1011.24 336.535 1011.1 336.841 1010.96 337.141 1010.74 337.348 1010.44 337.468 1010.14 337.581 1009.74 337.641 1009.23 337.641Z" fill="#231F20" transform="matrix(1 0 0 1.00077 0.326768 0)"/><path d="M1038.46 337.787C1035.92 337.787 1033.59 337.374 1031.49 336.541 1029.38 335.709 1027.58 334.529 1026.07 333.003 1024.56 331.477 1023.4 329.672 1022.56 327.586 1021.73 325.5 1021.32 323.188 1021.32 320.643 1021.32 317.638 1022.04 314.926 1023.47 312.52 1024.9 310.115 1026.9 308.203 1029.44 306.79 1031.99 305.377 1034.9 304.671 1038.19 304.671 1040.32 304.671 1042.26 304.998 1044.02 305.644 1045.78 306.297 1047.31 307.17 1048.6 308.283 1049.9 309.395 1050.91 310.668 1051.62 312.101 1052.34 313.533 1052.7 315.019 1052.7 316.545 1052.7 318.81 1052.18 320.356 1051.14 321.163 1050.1 321.976 1048.83 322.375 1047.35 322.375L1025.48 322.375C1025.39 324.827 1026 326.933 1027.32 328.692 1028.64 330.451 1030.31 331.804 1032.32 332.757 1034.33 333.703 1036.36 334.176 1038.4 334.176 1039.74 334.176 1040.91 334.109 1041.9 333.969 1042.89 333.829 1043.75 333.636 1044.47 333.376 1045.19 333.123 1045.81 332.87 1046.31 332.617 1046.82 332.364 1047.29 332.11 1047.7 331.85 1048.11 331.597 1048.51 331.397 1048.88 331.264 1049.11 331.171 1049.38 331.138 1049.68 331.158 1049.98 331.177 1050.2 331.311 1050.34 331.537 1050.57 331.864 1050.73 332.15 1050.82 332.404 1050.92 332.657 1050.96 332.95 1050.96 333.27 1050.96 333.683 1050.41 334.256 1049.3 334.969 1048.18 335.689 1046.68 336.335 1044.79 336.915 1042.89 337.494 1040.78 337.781 1038.47 337.781ZM1025.48 319.044 1046.17 319.044C1047.1 319.044 1047.81 318.937 1048.32 318.73 1048.83 318.524 1049.08 317.838 1049.08 316.685 1049.08 315.159 1048.61 313.76 1047.66 312.48 1046.72 311.208 1045.43 310.182 1043.81 309.389 1042.19 308.602 1040.34 308.209 1038.26 308.209 1035.94 308.209 1033.8 308.676 1031.83 309.595 1029.87 310.521 1028.3 311.807 1027.14 313.447 1025.98 315.092 1025.43 316.951 1025.48 319.037Z" fill="#231F20" transform="matrix(1 0 0 1.00077 0.326768 0)"/><path d="M1064.64 304.531C1065.06 304.305 1065.41 304.165 1065.68 304.118 1065.96 304.071 1066.23 304.165 1066.48 304.398 1066.74 304.631 1067.07 305.024 1067.49 305.577L1089.36 334.116C1089.86 334.769 1090.19 335.289 1090.33 335.682 1090.47 336.075 1090.46 336.401 1090.3 336.655 1090.13 336.908 1089.82 337.201 1089.36 337.521 1088.98 337.747 1088.66 337.901 1088.38 337.974 1088.1 338.041 1087.8 337.974 1087.48 337.767 1087.16 337.561 1086.76 337.154 1086.31 336.555L1064.44 308.016C1063.97 307.37 1063.67 306.837 1063.54 306.417 1063.4 306.004 1063.42 305.651 1063.6 305.377 1063.79 305.097 1064.14 304.824 1064.64 304.544ZM1089.22 304.531C1089.73 304.858 1090.08 305.157 1090.26 305.437 1090.45 305.717 1090.48 306.05 1090.37 306.443 1090.25 306.837 1089.94 307.356 1089.43 308.009L1067.56 336.548C1067.09 337.148 1066.7 337.554 1066.38 337.761 1066.06 337.967 1065.76 338.041 1065.48 337.967 1065.2 337.901 1064.88 337.747 1064.51 337.514 1064.1 337.188 1063.79 336.901 1063.6 336.648 1063.42 336.395 1063.41 336.068 1063.57 335.675 1063.73 335.282 1064.04 334.762 1064.51 334.109L1086.38 305.571C1087.02 304.738 1087.51 304.265 1087.84 304.151 1088.16 304.038 1088.62 304.165 1089.22 304.531Z" fill="#231F20" transform="matrix(1 0 0 1.00077 0.326768 0)"/><path d="M1105.4 294.53C1104.75 294.53 1104.24 294.436 1103.87 294.25 1103.5 294.063 1103.23 293.763 1103.07 293.343 1102.9 292.93 1102.82 292.397 1102.82 291.744 1102.82 291.091 1102.9 290.585 1103.07 290.218 1103.23 289.852 1103.51 289.585 1103.9 289.419 1104.3 289.259 1104.82 289.179 1105.46 289.179 1106.11 289.179 1106.62 289.272 1106.99 289.459 1107.36 289.645 1107.63 289.932 1107.79 290.325 1107.95 290.718 1108.03 291.258 1108.03 291.958 1108.03 292.557 1107.95 293.057 1107.79 293.45 1107.63 293.843 1107.36 294.123 1106.99 294.283 1106.61 294.443 1106.09 294.523 1105.39 294.523ZM1105.4 337.648C1104.93 337.648 1104.55 337.581 1104.25 337.441 1103.95 337.301 1103.74 337.081 1103.62 336.781 1103.51 336.481 1103.45 336.075 1103.45 335.569L1103.45 306.543C1103.45 306.037 1103.51 305.631 1103.62 305.331 1103.74 305.031 1103.95 304.824 1104.25 304.704 1104.55 304.584 1104.96 304.531 1105.46 304.531 1105.97 304.531 1106.37 304.598 1106.64 304.738 1106.92 304.878 1107.11 305.097 1107.23 305.397 1107.34 305.697 1107.4 306.124 1107.4 306.683L1107.4 335.635C1107.4 336.148 1107.34 336.548 1107.23 336.855 1107.11 337.154 1106.9 337.361 1106.6 337.481 1106.29 337.594 1105.9 337.654 1105.38 337.654Z" fill="#231F20" transform="matrix(1 0 0 1.00077 0.326768 0)"/><path d="M1121.85 305.431 1128.03 305.571 1137.68 305.431C1138.19 305.431 1138.59 305.491 1138.89 305.604 1139.19 305.717 1139.41 305.917 1139.55 306.19 1139.69 306.47 1139.76 306.843 1139.76 307.303 1139.76 307.816 1139.7 308.216 1139.58 308.516 1139.46 308.816 1139.27 309.029 1139 309.142 1138.72 309.255 1138.33 309.315 1137.82 309.315L1128.03 309.175 1121.71 309.315C1120.97 309.315 1120.47 309.169 1120.19 308.862 1119.91 308.562 1119.77 308.043 1119.77 307.303 1119.77 306.61 1119.93 306.124 1120.26 305.844 1120.59 305.564 1121.12 305.431 1121.86 305.431ZM1137.27 337.648C1135.19 337.648 1133.44 337.461 1132.03 337.094 1130.62 336.721 1129.47 336.148 1128.59 335.355 1127.71 334.569 1127.08 333.516 1126.72 332.197 1126.34 330.878 1126.16 329.245 1126.16 327.299L1126.16 295.356C1126.16 294.803 1126.22 294.37 1126.34 294.07 1126.45 293.77 1126.65 293.55 1126.92 293.41 1127.2 293.27 1127.57 293.204 1128.04 293.204 1128.54 293.204 1128.95 293.264 1129.25 293.377 1129.55 293.49 1129.77 293.69 1129.91 293.963 1130.05 294.243 1130.12 294.636 1130.12 295.143L1130.12 327.426C1130.12 328.865 1130.24 330.011 1130.5 330.864 1130.75 331.724 1131.14 332.357 1131.68 332.777 1132.21 333.19 1132.93 333.463 1133.86 333.576 1134.79 333.696 1135.9 333.75 1137.19 333.75 1137.75 333.75 1138.18 333.809 1138.48 333.923 1138.78 334.043 1139 334.236 1139.14 334.516 1139.28 334.796 1139.34 335.189 1139.34 335.695 1139.34 336.202 1139.28 336.601 1139.14 336.875 1139 337.154 1138.78 337.348 1138.48 337.461 1138.18 337.574 1137.77 337.634 1137.27 337.634Z" fill="#231F20" transform="matrix(1 0 0 1.00077 0.326768 0)"/><path d="M1165.25 332.024 1149.63 307.723C1149.21 307.076 1149.05 306.543 1149.14 306.124 1149.23 305.704 1149.58 305.317 1150.18 304.944 1150.83 304.524 1151.37 304.365 1151.81 304.458 1152.25 304.551 1152.68 304.918 1153.1 305.564L1167.33 328.132 1165.25 332.024ZM1157.96 350.841C1157.27 350.561 1156.86 350.228 1156.75 349.835 1156.63 349.441 1156.74 348.875 1157.06 348.135L1176.02 305.644C1176.35 304.904 1176.71 304.438 1177.1 304.258 1177.49 304.071 1178.04 304.145 1178.73 304.464 1179.42 304.791 1179.82 305.157 1179.91 305.571 1180 305.99 1179.88 306.543 1179.56 307.236L1160.54 349.868C1160.21 350.608 1159.88 351.027 1159.53 351.114 1159.19 351.207 1158.67 351.114 1157.98 350.834Z" fill="#231F20" transform="matrix(1 0 0 1.00077 0.326768 0)"/></g></svg>